<svg xmlns="http://www.w3.org/2000/svg" width="329" height="466"><path fill="#37B8B9" d="M0 93h329l-30 333-135 40-133-38L0 93z"/><path fill="#77D5E6" d="M300 120H164v319l110-31 26-288z"/><path fill="#FFF" d="M256 286h-25.743L247 375l-50 11-9.009-100h-73.14L126 385l-46-14-19-208h205l-10 123zm-150.495-83l4.729 42h112.57l4.71-42H105.505z"/><path fill="#282828" d="M277.501 48.37c-1.554 3.762-3.711 6.913-6.469 9.454-2.76 2.542-5.722 4.233-8.888 5.075-4.327 1.162-8.248 1.743-11.762 1.743h-29.319V.776h29.319c5.779 0 10.448.785 14.006 2.353 3.557 1.568 6.498 3.819 8.822 6.752 2.323 2.934 4.008 6.346 5.053 10.238 1.046 3.892 1.569 8.016 1.569 12.372 0 6.826-.778 12.119-2.331 15.879zm-20.802-29.384c-2.208-2.497-5.867-3.746-10.978-3.746h-4.923v34.895h4.836c4.123 0 7.057-.458 8.8-1.373 1.742-.914 3.107-2.511 4.095-4.792.987-2.279 1.481-5.975 1.481-11.087 0-6.766-1.104-11.399-3.311-13.897zm-78.005 45.656l-11.202-40.21-11.157 40.21h-19.352L122.774.776h18.744l6.748 35.754L158.143.776h18.677l9.901 35.706L193.477.776h18.647l-14.078 63.866h-19.352zm-70.211-22.474c1.379 1.715 2.3 3.038 2.765 3.968l9.557 18.506H98.506L87.957 45.125c-1.336-2.527-2.527-4.167-3.572-4.923-1.423-.987-3.035-1.481-4.836-1.481h-1.742v25.921H57.985V.776h32.891c6.099 0 10.76.523 13.984 1.569 3.224 1.045 5.823 2.984 7.798 5.816 1.975 2.831 2.962 6.28 2.962 10.346 0 3.544-.755 6.6-2.266 9.17-1.511 2.571-3.59 4.655-6.233 6.252-1.686 1.017-3.996 1.859-6.931 2.527 2.35.785 4.063 1.57 5.137 2.354.726.524 1.777 1.643 3.156 3.358zM93.838 15.327c-1.307-1.103-3.761-1.656-7.362-1.656h-8.669v12.983h8.32c.9 0 2.643-.29 5.228-.872 1.307-.261 2.374-.929 3.202-2.004.828-1.074 1.242-2.309 1.242-3.703 0-2.061-.654-3.644-1.961-4.748z"/></svg>